<svg xmlns="http://www.w3.org/2000/svg" xmlns:xlink="http://www.w3.org/1999/xlink" width="40" height="40" viewBox="0 0 40 40">
  <defs>
    <clipPath id="clip-Bel">
      <rect width="40" height="40"/>
    </clipPath>
  </defs>
  <g id="Bel" clip-path="url(#clip-Bel)">
    <path id="bell-regular" d="M29.423,22.911c-1.294-1.39-3.714-3.481-3.714-10.332,0-5.2-5.628-9.849-8.567-10.39s-2.38,0-2.38,0,2.41-.567-1.9,0S4.29,7.376,4.29,12.579c0,6.85-2.421,8.942-3.714,10.332A2.092,2.092,0,0,0,0,24.364a2.145,2.145,0,0,0,2.15,2.143h25.7A2.144,2.144,0,0,0,30,24.364a2.091,2.091,0,0,0-.577-1.454Zm-24.9.382C5.942,21.42,7.5,18.316,7.5,12.618c0-.013,0-.025,0-.039a7.5,7.5,0,1,1,15,0c0,.013,0,.025,0,.039.007,5.7,1.561,8.8,2.982,10.675ZM15,32.936a4.285,4.285,0,0,0,4.284-4.286H10.716A4.285,4.285,0,0,0,15,32.936Z" transform="translate(5.11 3.063)" fill="#fff"/>
  </g>
</svg>
