<svg xmlns="http://www.w3.org/2000/svg" xmlns:xlink="http://www.w3.org/1999/xlink" width="40" height="40" viewBox="0 0 40 40">
  <defs>
    <clipPath id="clip-Bladeren">
      <rect width="40" height="40"/>
    </clipPath>
  </defs>
  <g id="Bladeren" clip-path="url(#clip-Bladeren)">
    <g id="Subtraction_1" data-name="Subtraction 1" transform="translate(53 5)" fill="none" stroke-linejoin="round">
      <path d="M-40,25h-1a2,2,0,0,1-2-2V2a2,2,0,0,1,2-2h12a2,2,0,0,1,2,2V3H-40V25Z" stroke="none"/>
      <path d="M -39.99959945678711 25.00020027160645 L -40.0005989074707 25.00020027160645 L -41.00040054321289 25.00020027160645 C -42.10308837890625 25.00020027160645 -43.00019836425781 24.10309028625488 -43.00019836425781 23.00040054321289 L -43.00019836425781 1.999800086021423 C -43.00019836425781 0.8971101641654968 -42.10308837890625 1.358032193365943e-07 -41.00040054321289 1.358032193365943e-07 L -28.99979972839355 1.358032193365943e-07 C -27.89710998535156 1.358032193365943e-07 -27 0.8971101641654968 -27 1.999800086021423 L -27 2.99970006942749 L -39.99959945678711 2.99970006942749 L -39.99959945678711 24.99920082092285 L -39.99959945678711 25.00020027160645 Z" stroke="none" fill="#fff"/>
    </g>
    <g id="Rectangle_3" data-name="Rectangle 3" transform="translate(14 9)" fill="none" stroke="#fff" stroke-linejoin="round" stroke-width="3">
      <rect width="16" height="25" rx="2" stroke="none"/>
      <rect x="1.5" y="1.5" width="13" height="22" rx="0.5" fill="none"/>
    </g>
  </g>
</svg>
