<svg xmlns="http://www.w3.org/2000/svg" xmlns:xlink="http://www.w3.org/1999/xlink" width="40" height="40" viewBox="0 0 40 40">
  <defs>
    <clipPath id="clip-Esports_hover">
      <rect width="40" height="40"/>
    </clipPath>
  </defs>
  <g id="Esports_hover" clip-path="url(#clip-Esports_hover)">
    <path id="Subtraction_2" data-name="Subtraction 2" d="M-64.051,25.33h-14.9a.6.6,0,0,1-.6-.593v-.594a2.54,2.54,0,0,1,.944-2.04,3.6,3.6,0,0,1,2.277-.73h2.416V17.81a11.1,11.1,0,0,1-3.428-3.641,11.869,11.869,0,0,1-5.538-2.063C-84.864,10.708-86,8.892-86,7.124V4.354a1.2,1.2,0,0,1,1.208-1.187h5.236V1.187A1.2,1.2,0,0,1-78.347,0h13.692a1.2,1.2,0,0,1,1.208,1.187V3.167h5.236A1.2,1.2,0,0,1-57,4.354v2.77c0,1.764-1.136,3.58-3.116,4.982a11.824,11.824,0,0,1-5.538,2.063,11.146,11.146,0,0,1-3.428,3.641v3.562h2.416a3.6,3.6,0,0,1,2.277.73,2.54,2.54,0,0,1,.944,2.04v.594A.6.6,0,0,1-64.051,25.33ZM-76.37,2c-.179,0-.2.063-.415.662l-.086.239a12.127,12.127,0,0,0,0,3.895l.444,3.228a9.954,9.954,0,0,0,1.147,2.948,12.116,12.116,0,0,0,2.232,2.511h3.276a8.035,8.035,0,0,0,2.324-2.755,12.591,12.591,0,0,0,1.052-2.7A18.5,18.5,0,0,0-65.959,6.8l.01-2.4V2.9a.863.863,0,0,0-.819-.9c-.161,0-3.959-.016-6.63-.016-1.6,0-2.49.005-2.653.016-.045,0-.085,0-.122,0l-.111,0H-76.3Zm12.907,4.328a17.567,17.567,0,0,1-.644,4.264A8.17,8.17,0,0,0-62,9.539c.885-.627,1.777-1.617,1.777-2.414V6.332Zm-19.316,0v.792A3.641,3.641,0,0,0-81,9.539,8.15,8.15,0,0,0-78.9,10.6a17.569,17.569,0,0,1-.644-4.264Z" transform="translate(92 7)" fill="#a970ff"/>
  </g>
</svg>
