<svg xmlns="http://www.w3.org/2000/svg" xmlns:xlink="http://www.w3.org/1999/xlink" width="40" height="40" viewBox="0 0 40 40">
  <defs>
    <clipPath id="clip-Muziek">
      <rect width="40" height="40"/>
    </clipPath>
  </defs>
  <g id="Muziek" clip-path="url(#clip-Muziek)">
    <g id="Group_1" data-name="Group 1" transform="translate(3 -1)">
      <path id="Subtraction_3" data-name="Subtraction 3" d="M4.522,24.118C2.029,24.118,0,22.766,0,21.1s2.029-3.015,4.522-3.015a6.58,6.58,0,0,1,1.508.185V5.959A1.5,1.5,0,0,1,7.085,4.521L22.159.07a1.507,1.507,0,0,1,1.961,1.436V18.088c0,1.663-2.029,3.015-4.522,3.015s-4.522-1.353-4.522-3.015S17.1,15.073,19.6,15.073a6.564,6.564,0,0,1,1.507.185v-8.7l-.059.017V3.789L9.039,6.881v4.17h.006V21.1C9.045,22.766,7.016,24.118,4.522,24.118Z" transform="translate(5 9)" fill="#fff"/>
      <rect id="Rectangle_4" data-name="Rectangle 4" width="15.242" height="2.722" transform="matrix(0.966, -0.259, 0.259, 0.966, 12.458, 18.649)" fill="#fff"/>
    </g>
  </g>
</svg>
